<!-- public/icons/icon.svg — icona PWA "Zona sulla mappa" (design B, approvato 2026-07-09).
     Full-bleed 512×512; drone e zona dentro il cerchio sicuro maskable (r≈205). -->
<svg xmlns="http://www.w3.org/2000/svg" viewBox="0 0 512 512">
  <defs>
    <linearGradient id="notte" x1="0" y1="0" x2="0" y2="1">
      <stop offset="0" stop-color="#13283f"/>
      <stop offset="1" stop-color="#0b1828"/>
    </linearGradient>
  </defs>
  <rect width="512" height="512" fill="url(#notte)"/>
  <g stroke="#2c4560" stroke-width="10" fill="none" opacity="0.85">
    <path d="M -20 150 L 250 120 L 540 170"/>
    <path d="M -20 360 L 200 400 L 540 340"/>
    <path d="M 150 -20 L 180 250 L 120 540"/>
    <path d="M 400 -20 L 370 300 L 430 540"/>
  </g>
  <circle cx="256" cy="262" r="150" fill="#ff453a" opacity="0.38"/>
  <circle cx="256" cy="262" r="150" fill="none" stroke="#ff6259" stroke-width="12"/>
  <g transform="translate(256 256) scale(0.62)" fill="#ffffff" stroke="#ffffff">
    <line x1="-108" y1="-108" x2="108" y2="108" stroke-width="30" stroke-linecap="round"/>
    <line x1="-108" y1="108" x2="108" y2="-108" stroke-width="30" stroke-linecap="round"/>
    <circle cx="-118" cy="-118" r="52" fill="none" stroke-width="22"/>
    <circle cx="118" cy="-118" r="52" fill="none" stroke-width="22"/>
    <circle cx="-118" cy="118" r="52" fill="none" stroke-width="22"/>
    <circle cx="118" cy="118" r="52" fill="none" stroke-width="22"/>
    <circle cx="0" cy="0" r="62" stroke="none"/>
  </g>
</svg>
